{"title":"The_Scarlet_Pimpernel_(Richard_E_Grant_2000)_Series_1_and_2.Xvid","uid":6200485,"size":4535219739,"categoryP":"video","categoryS":"tv_shows","magnet":"?xt=urn:btih:b61daa121d3475c4964244aa0151f7a2a00c903c&amp;dn=The_Scarlet_Pimpernel_%28Richard_E_Grant_2000%29_Series_1_and_2.Xvid&amp;tr=udp%3A%2F%2Ftracker.openbittorrent.com%3A80&amp;tr=udp%3A%2F%2Fopen.demonii.com%3A1337&amp;tr=udp%3A%2F%2Ftracker.coppersurfer.tk%3A6969&amp;tr=udp%3A%2F%2Fexodus.desync.com%3A6969","seeders":0,"leechers":1,"uploader":null,"files":7,"time":1298599103,"description":"\n                         The Scarlet Pimpernel (2000)\n\n ===========================================================================\n\n Adapted from the classic play and adventure novel by Baroness Emmuska Orczy, \n set during the Reign of Terror following the start of the French Revolution.\n\n Stars\n\n    * Richard E. Grant as Sir Percy Blakeney \n    * Elizabeth McGovern as Lady Marguerite Blakeney \n    * Martin Shaw as Chauvelin \n    * John McEnery as Sir William Wetherby\n    * Ronan Vibert as Robespierre    \n\n  Series 1 and 2 (All).  6 x 90m (approx) episodes.\n\n &lt;a href=&quot; http://www.tv.com/the-scarlet-pimpernel/show/10274/episode.html?season=All&quot; rel=&quot;nofollow&quot; target=&quot;_NEW&quot;&gt; http://www.tv.com/the-scarlet-pimpernel/show/10274/episode.html?season=All&lt;/a&gt;\n\n ============================================================================\n \n  Format                           : AVI\n  Format/Info                      : Audio Video Interleave\n  File size                        : 691 MiB\n  Duration                         : 1h 27mn\n  Overall bit rate                 : 1,104 Kbps\n  Writing library                  : VirtualDub build 24478/release\n  \n  Video\n  ID                               : 0\n  Format                           : MPEG-4 Visual\n  Format profile                   : Advanced Simple@L5\n  Format settings, BVOP            : Yes\n  Format settings, QPel            : No\n  Format settings, GMC             : No warppoints\n  Format settings, Matrix          : Default (H.263)\n  Muxing mode                      : Packed bitstream\n  Codec ID                         : XVID\n  Codec ID/Hint                    : XviD\n  Duration                         : 1h 27mn\n  Bit rate                         : 903 Kbps\n  Width                            : 640 pixels\n  Height                           : 480 pixels\n  Display aspect ratio             : 4:3\n  Frame rate                       : 25.000 fps\n  Resolution                       : 8 bits\n  Colorimetry                      : 4:2:0\n  Scan type                        : Progressive\n  Bits/(Pixel*Frame)               : 0.118\n  Stream size                      : 564 MiB (82%)\n  Writing library                  : XviD 1.1.2 (UTC 2006-11-01)\n  \n  Audio\n  ID                               : 1\n  Format                           : MPEG Audio\n  Format version                   : Version 1\n  Format profile                   : Layer 3\n  Format_Settings_Mode             : Joint stereo\n  Format_Settings_ModeExtension    : MS Stereo\n  Codec ID                         : 55\n  Codec ID/Hint                    : MP3\n  Duration                         : 1h 27mn\n  Bit rate mode                    : Constant\n  Bit rate                         : 192 Kbps\n  Channel(s)                       : 2 channels\n  Sampling rate                    : 48.0 KHz\n  Stream size                      : 120 MiB (17%)\n  Alignment                        : Split accross interleaves\n  Interleave, duration             : 40 ms (1.00 video frame)\n  Interleave, preload duration     : 500 ms\n  Writing library                  : LAME3.97\n  \n\n","torrent":{"xt":"urn:btih:b61daa121d3475c4964244aa0151f7a2a00c903c","amp;dn":"The_Scarlet_Pimpernel_%28Richard_E_Grant_2000%29_Series_1_and_2.Xvid","amp;tr":["udp%3A%2F%2Ftracker.openbittorrent.com%3A80","udp%3A%2F%2Fopen.demonii.com%3A1337","udp%3A%2F%2Ftracker.coppersurfer.tk%3A6969","udp%3A%2F%2Fexodus.desync.com%3A6969"],"infoHash":"b61daa121d3475c4964244aa0151f7a2a00c903c","infoHashBuffer":{"type":"Buffer","data":[182,29,170,18,29,52,117,196,150,66,68,170,1,81,247,162,160,12,144,60]},"announce":[],"urlList":[]}}